<svg xmlns="http://www.w3.org/2000/svg" width="256" height="256"><path fill="#1976D2" fill-opacity=".016" fill-rule="evenodd" d="M0 128.004v128.004l128.25-.254 128.25-.254.254-127.75L257.008 0H0zm.485.496c0 70.4.119 99.053.265 63.672s.146-92.98 0-128S.485 58.1.485 128.5"/><path fill="#1976D2" fill-opacity=".036" fill-rule="evenodd" d="M75.453 1.265c-7.598 3.08-13.158 8.197-15.448 14.221C59.41 17.051 58.27 18 56.985 18c-2.788 0-8.985 3.269-11.687 6.166C42.333 27.345 40 33.174 40 37.403 40 46.812 47.849 55 56.867 55c3.956 0 3.97.014 5.05 5.049.596 2.777 1.083 5.753 1.083 6.614 0 1.813.058 1.806 17.5-2.105 6.6-1.479 17.175-2.998 23.5-3.374l11.5-.684.289-8.151c.271-7.646.437-8.189 2.673-8.75C124.537 42.074 131 33.23 131 26.441c0-10.829-12.072-20.193-22.369-17.35-3.437.949-4 .792-7.194-2.012-1.905-1.673-4.917-3.793-6.693-4.711C90.678.265 79.497-.374 75.453 1.265m73.789 40.4c-.692.279-9.214 10.256-18.937 22.171A16510 16510 0 0 1 108.72 90.25c-6.149 7.477-6.621 6.866-6.942-9L101.5 67.5l-5.222.215c-5.226.216-11.858 1.673-24.544 5.394l-6.766 1.985.093 51.663c.056 30.821.48 52.386 1.052 53.453.86 1.608 2.624 1.79 17.387 1.79 15.22 0 16.506-.142 17.465-1.934.629-1.176 1.035-11.157 1.035-25.465 0-22.762.068-23.567 2.067-24.637 1.594-.853 2.591-.763 4.357.394 1.259.825 10.34 11.995 20.18 24.821s18.884 24.333 20.098 25.571c2.126 2.167 2.865 2.25 20.098 2.25 15.791 0 18.069-.205 19.415-1.75.838-.963 3.63-8.05 6.204-15.75l4.679-14 5.201-2.5c4.357-2.094 5.647-3.381 7.951-7.929 2.976-5.875 3.663-13.532 1.683-18.756-3.153-8.323-10.991-9.968-17.872-3.751-8.082 7.302-10.607 18.133-6.097 26.158l2.339 4.161-4.902 10.233-4.901 10.233-.786-10.424c-.433-5.734-.514-15.364-.182-21.401.588-10.68.71-11.134 4.536-16.864 4.546-6.808 4.276-5.275 4.005-22.66-.25-16.041-.454-17-3.621-17-3.063 0-3.392 1.4-3.706 15.754-.146 6.672-.653 11.254-1.246 11.254s-1.1-4.582-1.246-11.254c-.296-13.528-.73-15.754-3.073-15.754-3.603 0-4.181 2.025-4.181 14.641 0 11.256-.799 15.111-2.546 12.285-.376-.608-.611-6.006-.522-11.994.172-11.54-.725-14.932-3.948-14.932-2.792 0-3.177 2.69-2.808 19.643l.324 14.916 4 5.441c3.957 5.383 4.004 5.551 4.335 15.504.184 5.534-.053 11.558-.527 13.387l-.861 3.324-6.576-8.857c-3.617-4.872-11.626-15.497-17.797-23.611-6.17-8.114-11.074-15.39-10.897-16.169.178-.779 10.898-13.006 23.823-27.17s25.007-27.487 26.848-29.604c5.653-6.502 4.882-6.815-16.567-6.725-10.329.043-19.347.307-20.039.586M85.223 200.557c-2.602 1.822-2.87 4.653-.652 6.872 2.108 2.107 5.743 1.987 7.774-.258 2.163-2.39 2.088-3.738-.345-6.171-2.407-2.407-3.84-2.501-6.777-.443m-28.222.509c-6.499 2.741-9.982 9.431-8.015 15.392 1.244 3.769 5.019 6.554 11.514 8.494 8.653 2.585 9.5 3.132 9.5 6.134 0 5.613-8.365 6.875-12.96 1.956-2.547-2.726-3.047-2.879-6.402-1.953-4.165 1.15-4.127 1.065-2.162 4.864 2.432 4.704 8.078 7.535 15.024 7.535 10.007 0 15.5-4.769 15.5-13.458 0-5.989-3.623-9.562-12.337-12.166-3.94-1.178-7.725-2.584-8.413-3.125-1.873-1.474-1.506-4.531.684-5.704 3.286-1.759 6.095-1.16 9.22 1.965 3.506 3.506 2.964 3.395 7.448 1.522l3.537-1.478-1.819-3.091c-1.001-1.7-3.251-3.978-5.001-5.061-3.785-2.344-11.819-3.302-15.318-1.826M168 221.5V243h8v-43h-8zm-56-9.835c-.825.328-2.287 1.282-3.25 2.12-1.579 1.376-1.75 1.358-1.75-.188 0-1.396-.785-1.655-4.25-1.404l-4.25.307v30l4.25.307 4.25.308.015-8.808c.018-11.004 1.233-13.807 5.985-13.807 4.745 0 5.967 2.807 5.985 13.75L119 243h8v-11.55c0-11.559-.908-15.469-4.234-18.229-1.65-1.369-8.679-2.385-10.766-1.556m28.415.756c-6.623 2.884-10.294 11.204-8.349 18.925 2.275 9.035 11.5 13.998 18.903 10.17l3.295-1.704-.687 2.844c-.377 1.564-1.423 3.407-2.323 4.094-2.503 1.912-8.327 1.53-10.702-.701-2.061-1.937-2.103-1.936-5.366.13l-3.289 2.083 2.302 2.498c5.111 5.548 14.971 6.965 20.811 2.99 7.129-4.852 7.49-6.035 7.49-24.572V212.5l-3.898-.319c-2.144-.176-4.204.175-4.578.78-.476.771-1.552.644-3.602-.425-3.55-1.851-5.954-1.879-10.007-.115m50.035-.068c-9.683 4.389-12.15 17.908-4.85 26.583 5.997 7.128 19.132 6.04 23.401-1.938.841-1.572.459-2.021-2.569-3.02-2.986-.986-3.841-.918-5.323.424-2.627 2.377-7.681 2.047-9.552-.625-.856-1.222-1.557-2.556-1.557-2.965s4.613-.87 10.25-1.027l10.25-.285-.11-3.705c-.153-5.141-2.151-9.489-5.437-11.828-3.666-2.611-10.602-3.383-14.503-1.614M84 227.5V243h9v-31h-9zm109.972-8.164c-4.249 2.137-3.396 3.453 2.478 3.818 5.878.366 6.288.145 4.3-2.323-1.847-2.293-4.171-2.805-6.778-1.495m-49.737.71c-4.504 1.791-5.5 8.78-1.78 12.499 3.08 3.081 6.559 3.133 9.371.141 5.479-5.832-.341-15.523-7.591-12.64"/><path fill="#1976D2" fill-opacity=".148" fill-rule="evenodd" d="M76.939 1.317c-2.509.703-6.036 2.328-7.839 3.612-3.576 2.546-9.1 9.613-9.1 11.642 0 .698-1.462 1.575-3.25 1.948C46.879 20.576 41 27.75 41 37.738c0 9.683 5.463 15.636 15.69 17.099l4.731.676 1.157 5.778c.637 3.178 1.347 5.967 1.578 6.198s3.778-.46 7.882-1.536c9.642-2.529 23.072-4.668 34.711-5.528l9.249-.683-.594-7.621-.594-7.621 4.631-1.864c10.605-4.268 14.222-17.279 7.449-26.791-3.84-5.392-14.837-8.549-20.055-5.757-1.715.918-2.518.593-5.131-2.08-6.377-6.522-16.046-9.135-24.765-6.691m71.809 41.667c-1.387 1.091-11.426 12.903-22.308 26.25s-20.458 24.821-21.281 25.499c-3.264 2.692-4.159-.277-4.159-13.796 0-7.051-.338-13.003-.75-13.229-1.359-.743-16.932 2.338-25.923 5.128L65.5 75.575l.36 51.962c.229 33.024.729 52.419 1.373 53.213 1.399 1.728 30.844 1.773 32.567.05.866-.866 1.2-7.806 1.2-24.929 0-20.238.231-23.959 1.571-25.3 2.058-2.057 4.724-1.991 7.221.179 1.107.963 9.755 11.875 19.217 24.25s18.143 23.522 19.292 24.771c2.048 2.228 2.443 2.266 21.09 2l19.004-.271 5.154-14.902c5.015-14.5 5.259-14.955 9.052-16.869 5.2-2.623 7.26-4.539 9.41-8.752C217.69 129.85 213.68 115 204.996 115c-4.247 0-8.159 2.213-11.384 6.441-6.158 8.074-7.255 16.143-3.167 23.294l2.421 4.234-5.306 10.766-5.307 10.765-.704-5.5c-.387-3.025-.556-12.938-.376-22.029l.327-16.53 4-5.456 4-5.456-.04-16.255c-.042-16.587-.608-19.199-3.893-17.938C184.255 81.839 184 84.062 184 95c0 11.055-.246 13.157-1.601 13.677-2.716 1.042-3.368-1.724-3.384-14.368-.008-6.705-.424-12.444-.925-12.753-.5-.309-1.625-.288-2.5.048-1.331.511-1.592 2.585-1.605 12.753-.016 12.597-.669 15.362-3.384 14.32-1.355-.52-1.601-2.622-1.601-13.677 0-10.938-.255-13.161-1.567-13.664-.862-.331-1.993-.176-2.513.344s-1.052 8.117-1.183 16.883L163.5 114.5l4.25 6.364 4.25 6.364v13.469c0 7.654-.392 13.326-.909 13.136-.499-.183-9.025-11.133-18.945-24.333-17.907-23.827-18.025-24.018-16.415-26.5 1.579-2.434 19.078-21.903 42.067-46.803 9.345-10.121 11.146-12.56 10.158-13.75-.965-1.163-4.681-1.447-18.944-1.447-16.179 0-17.964.175-20.264 1.984M84.086 202.25c-1.613 4.271 2.053 7.352 6.701 5.633 2.45-.906 3.021-4.675 1.013-6.683-2.1-2.1-6.764-1.465-7.714 1.05m-29.323.315C51.314 204.437 49 208.838 49 213.527c0 5.025 4.043 8.86 11.602 11.005C67.888 226.599 71 228.496 71 230.868c0 5.343-9.408 7.032-14.104 2.532-2.203-2.11-3.294-2.471-5.805-1.92-3.65.802-3.873 2.256-.923 6.006 6.379 8.11 22.803 7.272 27.283-1.392 3.522-6.811.588-13.853-6.866-16.479l-9.085-3.198c-3.504-1.232-4.5-2.073-4.5-3.8 0-5.318 7.399-6.484 11.849-1.866 2.35 2.44 3.02 2.643 5.901 1.794 1.787-.527 3.25-1.48 3.25-2.117 0-1.886-3.958-6.355-7.039-7.948-3.653-1.889-12.647-1.842-16.198.085M168.23 221.75l.27 20.75 3.75.31 3.75.311V201h-8.041zm-83.791-8.452c-.274.714-.372 7.577-.219 15.25l.28 13.952 3.75.31 3.75.311V212h-3.531c-1.973 0-3.752.573-4.03 1.298M99 227.5V243h8v-9.809c0-10.649.757-12.662 5.163-13.723 1.956-.471 3.218-.087 4.75 1.445 1.839 1.839 2.087 3.281 2.087 12.147v10.061l3.75-.311 3.75-.31.288-9.254c.49-15.78-2.276-21.246-10.754-21.246-2.524 0-5.543.669-6.71 1.486-1.876 1.314-2.187 1.314-2.691 0-.356-.926-1.9-1.486-4.102-1.486H99zm39.832-13.791c-7.221 4.479-8.986 16.467-3.487 23.677 4.196 5.501 12.272 6.85 16.905 2.825 1.617-1.405 1.75-1.287 1.75 1.561 0 2.139-.807 3.717-2.635 5.155-3.316 2.609-5.964 2.615-10.218.022-3.11-1.897-3.527-1.93-5.767-.463-1.981 1.298-2.226 1.933-1.367 3.538 2.799 5.23 14.57 7.137 21.028 3.406 6.059-3.5 6.956-6.744 6.957-25.18L162 212h-3.5c-2.444 0-3.5.452-3.5 1.5 0 1.866-.943 1.858-3.441-.032-2.579-1.951-9.403-1.822-12.727.241m49.358.317c-8.466 5.161-8.291 21.658.284 26.958 6.032 3.728 15.08 2.346 19.244-2.938 1.733-2.2 1.615-2.482-1.546-3.675-2.322-.876-3.237-.736-5.111.781-1.255 1.016-3.358 1.848-4.672 1.848-2.908 0-6.389-3.269-6.389-6 0-1.867.667-2 10-2h10v-3.55c0-4.354-2.095-8.593-5.615-11.362-3.583-2.818-11.625-2.849-16.195-.062M192 220c-3.201 3.201-2.402 4 4 4 6.459 0 7.628-1.217 4.171-4.345-2.459-2.225-5.739-2.087-8.171.345m-49.826 1.314c-2.841 3.025-2.929 8.931-.174 11.686 2.516 2.516 8.129 2.653 10.193.25 2.438-2.839 2.931-5.343 1.754-8.91-1.861-5.641-7.866-7.184-11.773-3.026"/><path fill="#1976D2" fill-opacity=".107" fill-rule="evenodd" d="M78.003 2.367c-.002.476-.903.631-2.003.343-1.1-.287-2-.088-2 .443s-.45.687-1 .347-1-.115-1 .5-.403.869-.895.565c-.493-.305-1.155.123-1.472.95-.318.827-1.152 1.387-1.855 1.244-.703-.142-1.174.278-1.047.933.127.656-.87 2.059-2.216 3.118s-2.162 2.209-1.814 2.557.081.633-.593.633-.948.45-.608 1 .172 1-.374 1c-.545 0-1.289.938-1.653 2.085-.512 1.612-1.207 1.948-3.067 1.481-1.323-.332-2.406-.176-2.406.348 0 .788-3.968 2.675-4.732 2.25-.538-.299-4.871 4.391-4.594 4.973.167.35-.361 1.188-1.174 1.863s-1.231 1.626-.93 2.113.184.887-.261.887-.809 2.25-.809 5 .386 5 .857 5 .598.675.281 1.5-.064 1.5.56 1.5.89.245.59.545c-.841.841 5.549 6.927 6.962 6.63.688-.144 1.25.193 1.25.75s.64.767 1.422.467 2.321-.065 3.419.523c1.483.794 2.104.751 2.409-.164.297-.891.874-.77 2.077.434.917.916 1.395 2.375 1.063 3.241-.347.904-.083 1.574.62 1.574.764 0 1.01.817.655 2.174-.643 2.458 3.18 6.695 4.343 4.814.358-.581 1.403-.767 2.322-.415.999.384 1.67.15 1.67-.583 0-.731.805-1.013 1.999-.701 1.099.288 2.225.158 2.501-.289s1.402-.577 2.501-.289c1.167.305 1.999.03 1.999-.662 0-.711.764-.941 1.916-.576 1.054.335 2.228.104 2.609-.513.386-.626 1.751-.856 3.084-.522 1.467.368 2.391.162 2.391-.532 0-.773 1.403-.923 4.411-.472 2.712.407 4.661.258 5.059-.386.357-.576 3.659-1.051 7.339-1.056l6.691-.007.101-6.915c.103-7.093 2.001-11.052 4.546-9.479.723.446.892.282.448-.436-.392-.635-.236-1.155.346-1.155 1.683 0 2.266-.347 5.041-3 1.438-1.375 2.454-2.837 2.258-3.25s.104-.75.67-.75c.565 0 .768-.675.452-1.5-.317-.825-.19-1.501.281-1.503s.869-2.027.883-4.5-.36-4.497-.833-4.497-.674-.557-.447-1.237c.227-.681-.859-2.593-2.412-4.25-1.554-1.657-2.827-3.377-2.829-3.822s-.455-.531-1.005-.191-1 .115-1-.5-.45-.84-1-.5-1 .184-1-.347-.9-.73-2-.443c-1.118.293-2 .031-2-.593C115 9.502 113.875 9 112.5 9s-2.5.48-2.5 1.067c0 .634-.864.793-2.125.393-1.43-.454-1.902-.312-1.441.433 1.276 2.065-1.33 1.12-3.843-1.393-1.375-1.375-2.997-2.5-3.605-2.5-.607 0-.819-.461-.471-1.025.349-.563.263-.924-.191-.802C96.931 5.55 93 3.919 93 2.964c0-.496-.675-.642-1.5-.326-.825.317-1.5.19-1.5-.281.001-.471-2.698-.857-5.997-.857s-5.999.39-6 .867m74.455 39.701c-.363.588-1.389.789-2.279.447-.89-.341-1.297-.3-.904.093.392.392-.297 1.24-1.531 1.884-1.234.645-2.134 1.689-2 2.321s-.875 1.882-2.242 2.777-2.251 2.007-1.966 2.469c.286.462-.843 1.847-2.508 3.079-1.665 1.231-3.028 2.803-3.028 3.493 0 .691-.897 1.884-1.994 2.652s-1.736 1.654-1.421 1.969c.315.314-.795 1.583-2.467 2.819s-2.828 2.589-2.569 3.008c.258.418-.659 1.649-2.039 2.735S123 74.26 123 74.837s-.897 1.678-1.994 2.446-1.736 1.654-1.421 1.969c.315.314-.795 1.583-2.467 2.819s-2.828 2.589-2.569 3.008c.258.418-.772 1.738-2.289 2.931s-2.76 2.537-2.76 2.984c0 .847-5.235 6.006-6.094 6.006-2.351 0-2.884-3.101-2.579-14.994l.327-12.743-2.827-.543c-1.555-.299-3.368-.095-4.029.451-.661.547-2.124.702-3.25.344-1.271-.403-2.048-.204-2.048.526 0 .755-.895.951-2.5.548-1.518-.381-2.5-.2-2.5.459 0 .632-.838.821-2 .452-1.225-.389-2-.18-2 .54 0 .646-.675.915-1.5.598-.825-.316-1.5-.087-1.5.51s-.9.85-2 .562-2-.067-2 .491c0 .557-.675.754-1.5.437-.825-.316-1.5-.091-1.5.5 0 .592-.675.817-1.5.5s-1.507-.477-1.515-.357c-.509 7.2-1.053 101.31-.597 103.129.369 1.47 1.107 2.402 1.641 2.072s.971-.088.971.537c0 1.883 27.977.981 30.261-.975 1.642-1.406 1.789-3.604 1.702-25.425-.064-15.782.268-24.25.976-24.958 2.011-2.011 6.29-1.232 9.463 1.724 1.704 1.586 3.098 3.223 3.098 3.637s1.125 1.738 2.5 2.941c1.375 1.204 1.825 1.898 1 1.541s-.263.413 1.25 1.711 2.75 2.858 2.75 3.466.675 1.364 1.5 1.681 1.5 1.264 1.5 2.107c0 .842.464 1.531 1.031 1.531.568 0 1.327.787 1.688 1.75.362.963 1.36 2.276 2.219 2.919s1.562 1.605 1.562 2.138 1.125 1.953 2.5 3.156 1.825 1.909 1 1.567-.488.128.75 1.046c1.238.917 2.25 2.18 2.25 2.805 0 .626.917 1.711 2.039 2.411 1.121.7 1.784 1.686 1.472 2.191s.358 1.412 1.489 2.017 1.806 1.505 1.5 2 .357 1.388 1.472 1.985 2.028 1.552 2.028 2.122c0 2.925 2.826 3.393 20.5 3.393 16.687 0 21.128-.616 19.836-2.75-.25-.413.053-.75.672-.75.694 0 .868-.817.452-2.125-.484-1.526-.332-1.914.54-1.375.882.545 1.019.135.5-1.5-.453-1.427-.343-2.021.3-1.624.61.378.805-.169.49-1.375-.304-1.163-.031-2.001.652-2.001.647 0 .898-.45.558-1s-.093-1 .548-1 .907-.675.59-1.5c-.316-.825-.091-1.5.5-1.5.592 0 .817-.675.5-1.5s-.091-1.5.5-1.5c.592 0 .817-.675.5-1.5s-.091-1.5.5-1.5c.592 0 .843-.607.558-1.35-.586-1.528 3.656-6.965 4.655-5.966.357.357.649.076.649-.624 0-.741.65-1.025 1.552-.678.89.341 1.291.173.941-.393-.537-.869.701-1.398 2.661-1.139.36.047 1.26-.661 2-1.574 1.15-1.418 1.128-1.548-.154-.892-.825.423-.438-.166.861-1.308s2.031-2.076 1.627-2.076c-.403 0-.232-.604.381-1.342.612-.738.818-1.638.456-2s-.244-.658.263-.658.92-3.149.917-6.999-.369-6.999-.814-7c-.445 0-.531-.451-.191-1.001s.115-1-.5-1-.938-.338-.718-.75c.221-.412-.428-1.537-1.441-2.5-1.012-.963-1.841-1.435-1.841-1.05s-.54.16-1.2-.5c-1.505-1.505-5.17-1.607-4.25-.119.406.656-.063.966-1.191.787-1.847-.292-8.607 5.551-7.594 6.564.287.286-.216.804-1.116 1.149-.901.346-1.389 1.031-1.084 1.524.304.492.05.895-.565.895s-.84.45-.5 1 .133 1-.46 1c-.667 0-.824 1.011-.413 2.649.468 1.865.325 2.44-.481 1.941-.766-.473-1.146.307-1.146 2.351 0 1.682.48 3.059 1.067 3.059.613 0 .797.853.433 2-.349 1.1-.251 2 .217 2 1.525 0 4.751 6.344 3.447 6.779-.647.215-.922.803-.611 1.306s.103.915-.463.915c-.565 0-.768.675-.452 1.5.317.825.051 1.5-.59 1.5s-.888.45-.548 1 .115 1-.5 1-.84.45-.5 1 .115 1-.5 1-.84.45-.5 1 .115 1-.5 1-.84.45-.5 1 .115 1-.5 1-.84.45-.5 1 .115 1-.5 1-.84.45-.5 1 .115 1-.5 1-.84.45-.5 1 .115 1-.5 1-.857.423-.537.939c.319.517-.235.879-1.232.803-1.691-.127-1.809-1.591-1.771-21.935.022-11.99.363-21.801.759-21.803.395-.002.461-.675.146-1.496-.327-.851.116-1.755 1.031-2.107.882-.338 1.604-1.216 1.604-1.951s.897-1.965 1.994-2.733 1.696-1.694 1.333-2.057-.149-.66.475-.66.876-.675.56-1.5c-.317-.825-.169-1.5.328-1.5 1.096 0 1.026-7.809-.091-10.232-.44-.953-.642-5.791-.449-10.751.313-8.055.163-9.018-1.4-9.018-1.538.001-1.772 1.212-1.929 10.001-.098 5.5-.21 11.013-.25 12.25-.039 1.237-.643 2.615-1.341 3.061-1.649 1.053-5.325-.118-5.138-1.637.08-.646.092-6.236.026-12.424-.112-10.649-.228-11.25-2.175-11.25-1.983 0-2.046.451-1.75 12.514.265 10.796.086 12.584-1.302 13.023-4.006 1.266-4.404-.009-4.084-13.046.296-12.04.233-12.491-1.75-12.491-1.951 0-2.057.565-2.057 11 0 6.667-.394 11-1 11-.55 0-1 1.35-1 3s.502 3 1.117 3c.624 0 .886.882.593 2-.287 1.1-.088 2 .443 2s.687.45.347 1-.115 1 .5 1 .87.401.568.891c-.303.489.585 1.634 1.972 2.544 1.388.909 2.258 2.083 1.933 2.609s-.088.956.527.956.84.45.5 1-.184 1 .347 1 .712.97.402 2.156c-.387 1.478-.2 1.932.593 1.441.847-.523 1.139 1.784 1.088 8.594-.049 6.412-.352 8.687-.976 7.309-.663-1.465-.861-.602-.74 3.227.091 2.874-.103 5.495-.431 5.824-.79.789-5.849-3.636-5.255-4.597.253-.409-.24-1.013-1.097-1.342s-1.292-1.028-.966-1.555c.325-.526-.317-1.443-1.427-2.037s-1.93-1.404-1.822-1.8-1.23-2.295-2.972-4.22c-1.743-1.925-3.247-3.95-3.341-4.5s-1.019-1.593-2.054-2.318-1.653-1.691-1.371-2.146c.281-.454-.162-1.084-.984-1.4S149 127.422 149 126.638c0-.783-.675-1.683-1.5-2s-1.5-1.156-1.5-1.866-.944-1.88-2.097-2.601c-1.154-.72-1.832-1.576-1.507-1.901s-.306-1.219-1.402-1.987c-1.097-.768-1.994-1.998-1.994-2.733s-.704-1.606-1.563-1.936c-.86-.33-1.298-1.03-.972-1.557.325-.526-.322-1.445-1.437-2.042-2.114-1.131-2.81-4.015-.969-4.015.582 0 .799-.421.481-.935-.317-.514 1.006-2.142 2.941-3.619 1.936-1.476 3.519-3.283 3.519-4.015s2.004-3.006 4.453-5.053 4.253-4.044 4.01-4.438c-.243-.393 2.219-3.114 5.471-6.046s5.724-5.638 5.492-6.014c-.232-.375 2.247-3.069 5.508-5.986s5.733-5.624 5.491-6.015c-.242-.392 2.039-2.829 5.068-5.417S182 51.177 182 50.467c0-.709 1.238-2.365 2.75-3.68s2.826-2.817 2.919-3.339c.098-.548-2.747-.808-6.75-.616-4.5.216-6.919-.046-6.919-.75 0-1.464-20.637-1.478-21.542-.014M86.577 201.125c.298.481-.149.875-.993.875-1.206 0-1.339.513-.623 2.397.501 1.319.679 2.629.396 2.913s1.131.144 3.143-.31 3.858-1.025 4.103-1.269c.71-.711-.722-3.731-1.769-3.731-.524 0-.709-.394-.411-.875.297-.481-.568-.875-1.923-.875s-2.22.394-1.923.875m-27.841 1.258c.338.545-.123.682-1.072.318S56 202.55 56 203.198c0 .624-.285.851-.633.503-.736-.737-4.367 3.593-4.367 5.207 0 .6-.413 1.092-.917 1.092-1.658 0-.408 7.038 1.531 8.614 1.037.844 1.211 1.204.386.8-.882-.432-1.157-.359-.667.176.459.5 1.246.966 1.75 1.035s1.394.181 1.976.25.784.57.448 1.114c-.35.566.051.734.941.393.877-.337 1.552-.068 1.552.618 0 .668.674.955 1.5.638.825-.316 1.5-.109 1.5.461 0 .581.879.757 2 .401 1.225-.389 2-.18 2 .54 0 .646.563.968 1.25.715 1.58-.58 5.2 3.171 5.405 5.601.184 2.189-2.789 5.433-4.467 4.873-.654-.218-1.188.092-1.188.688 0 1.337-3.661 1.441-4.473.127-.325-.526-1.213-.718-1.974-.426-.797.306-2.347-.772-3.656-2.544-2.122-2.869-4.878-4.471-3.3-1.916.487.787.049.983-1.37.612-1.597-.418-2.053-.104-1.944 1.342.079 1.038.523 1.888.989 1.888s.599.399.298.887c-.301.487.122 1.442.941 2.122s1.489.924 1.489.542.688-.006 1.529.835 2.191 1.275 3 .965c.809-.311 1.471-.067 1.471.542 0 .663 2.027 1.107 5.059 1.107 3.577 0 4.849-.339 4.344-1.158-.487-.788-.048-.982 1.376-.61 1.282.335 2.3.005 2.629-.852.295-.769 1.091-1.282 1.769-1.139.678.142 1.253-.266 1.278-.908.025-.641.383-1.504.795-1.916.412-.413.75-1.8.75-3.084 0-1.283.45-2.333 1-2.333s1-.477 1-1.059-.45-.781-1-.441c-.56.346-1-.435-1-1.776 0-2.398-5.26-8.13-6.408-6.983-.326.326-.592.081-.592-.543 0-.63-.712-.862-1.601-.521-.88.338-1.947.055-2.369-.629s-1.952-1.312-3.399-1.396c-1.446-.083-2.63-.564-2.63-1.069-.001-.504-.264-.654-.584-.333-.712.711-4.417-2.854-4.417-4.25 0-.55.45-1 1-1s1-.675 1-1.5c0-1.651-.139-1.603 5.437-1.875 3.138-.154 4.533.391 6.882 2.687 1.942 1.898 3.183 2.494 3.643 1.75.384-.622 1.404-.859 2.267-.528s1.866.122 2.229-.466c.363-.587.157-1.068-.458-1.068s-.869-.403-.565-.895c.305-.493-.123-1.155-.95-1.472-.827-.318-1.387-1.152-1.244-1.855.142-.703-.303-1.165-.991-1.028-.687.138-1.25-.227-1.25-.809s-.45-.781-1-.441-1 .141-1-.441-.338-1.006-.75-.941-.975.043-1.25-.05c-2.127-.719-9.743-.461-9.264.315m114.055-.671-2.71.413-.29 19.439-.291 19.438 3.25-.001L176 241v-20c0-11-.113-19.933-.25-19.85s-1.469.335-2.959.562M113 213.259c0 .525-.638.71-1.417.411a1.534 1.534 0 0 0-1.969.893c-.619 1.613-4.614 1.992-4.614.437 0-.55-1.35-1-3-1h-3v27l3.25.002 3.25.003-.334-7.049c-.216-4.555.1-7.572.893-8.527.674-.812.985-1.719.69-2.014-.952-.951 4.276-5.415 6.342-5.415 1.1 0 2.992 1.012 4.204 2.25 1.991 2.031 2.184 3.149 1.986 11.5l-.218 9.25h5.812l.313-11.054c.172-6.113-.113-11.477-.638-12-.522-.52-.635-.946-.25-.946s-.087-.823-1.05-1.828-2.312-1.632-3-1.393c-.687.239-1.25-.033-1.25-.605s-1.35-1.002-3-.955-3 .515-3 1.04m29.5-.259c.534.865-1.755 1.455-2.909.75-.649-.396-4.591 4.942-4.591 6.217 0 .633-.498.843-1.107.467-.745-.461-.887.011-.433 1.441.4 1.261.241 2.125-.393 2.125-.587 0-1.067 1.35-1.067 3s.502 3 1.117 3c.624 0 .886.882.593 2-.287 1.1-.04 2 .55 2s.776.297.413.66.244 1.294 1.35 2.069 1.708 1.897 1.339 2.494c-.401.648-.206.799.483.372.635-.392 1.155-.21 1.155.405s.45.84 1 .5 1-.254 1 .191 2.025.809 4.5.809 4.5-.364 4.5-.809.422-.548.939-.229 1.31-.084 1.764-.896c.546-.976 1.307-1.178 2.247-.597 1.159.716 1.187 1.162.15 2.411-.7.843-.982 2.002-.627 2.576s.093 1.044-.581 1.044-.929.296-.567.658c.904.904-1.337 3.453-2.438 2.772-.488-.301-.887-.184-.887.261s-1.575.809-3.5.809-3.5-.364-3.5-.809-.453-.529-1.007-.187c-.554.343-1.265-.05-1.581-.872-.698-1.821-4.161-1.727-4.875.131-.749 1.954 2.344 6.22 4.038 5.57.784-.301 1.425-.161 1.426.31s2.476.881 5.5.91 5.499-.328 5.499-.794.563-.724 1.25-.573c1.428.313 6.83-4.772 5.977-5.625-.308-.309-.077-.561.513-.561s.837-.9.55-2c-.293-1.118-.031-2 .593-2 .771 0 1.117-4.49 1.117-14.5V214h-2.514c-1.382 0-3.434.563-4.56 1.25-1.7 1.038-2.25.981-3.237-.338-.654-.873-1.814-1.377-2.578-1.12-.844.284-1.115.024-.691-.662.47-.76-.486-1.13-2.92-1.13-2.157 0-3.369.404-3 1m50.5.225c0 .495-.787.772-1.75.614-1.807-.296-7.474 4.604-6.477 5.6.308.309.049.561-.575.561s-.876.675-.56 1.5c.317.825.078 1.5-.531 1.5-.645 0-1.107 1.877-1.107 4.5s.462 4.5 1.107 4.5c.609 0 .848.675.531 1.5s-.064 1.5.56 1.5.883.252.575.561c-1.032 1.031 4.702 5.891 6.586 5.581 1.023-.167 1.605.107 1.294.61s1.44.915 3.891.915 4.456-.395 4.456-.878c0-.482.565-.747 1.256-.588.69.158 2.153-.647 3.25-1.79 2.101-2.189 3.216-4.975 1.588-3.969a1.137 1.137 0 0 1-1.557-.382c-.662-1.071-3.395-.305-5.174 1.449-2.671 2.635-12.797-1.38-10.963-4.347.337-.545.047-1.22-.644-1.5-.951-.386-.892-.776.244-1.606.911-.666 5.326-.99 11.252-.826l9.752.27-.002-2.75c-.001-1.512-.5-2.75-1.109-2.75s-.848-.675-.531-1.5.113-1.5-.452-1.5-.75-.45-.41-1 .115-1-.5-1-.871-.399-.57-.887c.301-.487-.208-1.5-1.133-2.25-1.443-1.17-1.573-1.151-.915.137.593 1.161.467 1.141-.558-.088-.728-.873-1.886-1.398-2.574-1.166s-1.25-.053-1.25-.632-1.575-.994-3.5-.922c-1.925.073-3.5.537-3.5 1.033M86 227.5V241h6v-27h-6zm106.999-9.191c.001.445-.519.488-1.154.096-.692-.428-.883-.276-.478.379.371.601-.122 1.557-1.096 2.124s-1.321 1.052-.771 1.077.325.482-.5 1.015c-1.036.669 1.054.974 6.75.985 4.844.009 8.25-.398 8.25-.985 0-.55-.525-1-1.167-1-.641 0-.888-.279-.547-.619.34-.341-.071-1.309-.914-2.151-1.593-1.593-8.374-2.339-8.373-.921m-48.999 1c0 .445-.399.562-.887.261-1.101-.681-3.342 1.868-2.438 2.772.362.362.107.658-.567.658s-.948.45-.608 1 .141 1-.441 1-1.059.9-1.059 2 .47 2 1.044 2 .914.565.755 1.256c-.333 1.452 3.746 5.865 4.618 4.994.32-.321.583-.058.583.583 0 .642.9 1.167 2 1.167s2-.477 2-1.059.45-.781 1-.441 1 .141 1-.441.563-.947 1.25-.809 1.137-.312 1-1c-.138-.687.227-1.25.809-1.25s.781-.45.441-1-.141-1 .441-1 1.059-1.35 1.059-3-.477-3-1.059-3-.831-.37-.551-.822c.933-1.509-3.85-4.626-7.14-4.652-1.787-.014-3.25.338-3.25.783"/></svg>